<svg xmlns="http://www.w3.org/2000/svg" viewBox="0 0 700 700">
  <path
    d="
M 0.000 46.891
L 93.750 209.271
L 143.750 122.668
L 100.000 46.891
Z
  "
    fill="#ffffff"
    fill-rule="evenodd"
  />
  <path
    d="
M 100.000 220.096
L 150.000 306.699
L 300.000 46.891
L 200.000 46.891
Z
M 137.500 220.096
A 12.500 12.500 0 0 0 162.500 220.096
A 12.500 12.500 0 0 0 137.500 220.096
Z
  "
    fill="#ffffff"
    fill-rule="evenodd"
  />
  <path
    d="
M 156.250 317.524
L 350.000 653.109
L 400.000 566.506
L 206.250 230.922
Z
M 237.500 393.301
A 12.500 12.500 0 0 0 262.500 393.301
A 12.500 12.500 0 0 0 237.500 393.301
Z
  "
    fill="#ffffff"
    fill-rule="evenodd"
  />
  <path
    d="
M 256.250 295.873
L 306.250 382.476
L 350.000 306.699
L 437.500 306.699
L 487.500 220.096
L 400.000 220.096
L 500.000 46.891
L 400.000 46.891
Z
M 412.500 90.192
A 12.500 12.500 0 0 0 437.500 90.192
A 12.500 12.500 0 0 0 412.500 90.192
Z
  "
    fill="#ffffff"
    fill-rule="evenodd"
  />
  <path
    d="
M 462.500 133.494
L 550.000 133.494
L 400.000 393.301
L 450.000 479.904
L 700.000 46.891
L 512.500 46.891
Z
M 512.500 263.397
A 12.500 12.500 0 0 0 537.500 263.397
A 12.500 12.500 0 0 0 512.500 263.397
Z
  "
    fill="#ffffff"
    fill-rule="evenodd"
  />
</svg>
